<svg xmlns="http://www.w3.org/2000/svg" width="1045" height="1040" viewBox="0 0 1045 1040" role="img" aria-label="RISE logo in a house shape">
  <rect width="1045" height="1040" fill="#ffffff"/>

  <!-- House body -->
  <rect x="123" y="359" width="820" height="662" fill="#73BC58"/>

  <!-- Roof -->
  <path d="M40 402 L494 101 Q523 81 552 101 L1028 402 Q1000 442 943 442 L943 359 L123 359 L123 442 Q66 442 40 402 Z" fill="#73BC58"/>

  <!-- Roof opening -->
  <path d="M270 359 L532 188 L795 359 Z" fill="#ffffff"/>

  <!-- R -->
  <path d="M176 549 H293
           C347 549 379 584 379 638
           C379 685 359 710 321 722
           L388 843 H324 L294 790 H236 V843 H176 Z
           M236 608 V674 H283
           C307 674 316 658 316 639
           C316 620 305 608 283 608 Z"
        fill="#254417"/>

  <!-- I bolt shadow -->
  <path d="M437 533 H454 L413 621 L479 611 L388 851 L449 691 H395 Z" fill="#736820"/>
  <!-- I bolt -->
  <path d="M449 533 H506 L473 621 L540 611 L388 851 L450 691 H395 Z" fill="#DFCA45"/>

  <!-- S -->
  <path d="M628 546
           C685 546 714 575 722 591
           L682 628
           C671 612 649 603 624 603
           C604 603 595 614 595 631
           C595 650 612 661 648 674
           C697 693 714 718 714 756
           C714 811 672 845 613 845
           C557 845 520 821 499 793
           L545 755
           C562 776 585 786 610 786
           C637 786 653 774 653 756
           C653 738 642 728 607 715
           C559 697 534 673 534 632
           C534 581 573 546 628 546 Z"
        fill="#254417"/>

  <!-- Top arrow on S -->
  <path d="M693 546 L728 591 L682 627 L689 606 C675 601 657 597 636 596 L636 566 C654 566 673 569 688 575 Z"
        fill="#254417" stroke="#000000" stroke-width="1.2"/>

  <!-- Bottom arrow on S -->
  <path d="M545 755 L499 793 L536 835 L536 816 C551 828 573 837 601 841 L601 809 C578 804 558 793 545 776 Z"
        fill="#254417" stroke="#000000" stroke-width="1.2"/>

  <!-- E -->
  <path d="M762 549 H910 V607 H821 V665 H885 V724 H821 V783 H915 V843 H762 Z" fill="#254417"/>
</svg>
