<?xml version="1.0" encoding="utf-8"?>
<!DOCTYPE svg PUBLIC "-//W3C//DTD SVG 1.0//EN" "http://www.w3.org/TR/2001/REC-SVG-20010904/DTD/svg10.dtd">
<svg version="1.0" xmlns="http://www.w3.org/2000/svg" width="2000px" height="2000px" viewBox="0 0 2000 2000" preserveAspectRatio="xMidYMid meet">
 <g fill="none" fill-rule="evenodd" stroke="#ffffff" stroke-width="1">
  <path d="M0 1000 L0 0 1000 0 L2000 0 2000 1000 L2000 2000 1000 2000 L0 2000 0 1000 M702 1485 L702 1484.5C702 1484.2 702 1483.7 702 1483.5 L702 1483L702 1483 L702 1482.5C702 1482.2 702.2 1482 702.5 1482 L703 1482L703 1482 L703 1481.5C703 1481.2 703 1480.7 703 1480.5 L703 1480L703 1480 L703 1479.5C703 1479.2 703.2 1479 703.5 1479 L704 1479L704 1479 L704 1478.3C704 1477.9 704.2 1477.4 704.5 1477.1 C704.7 1476.8 705 1476.2 705 1475.8 L705 1475L705.5 1474.5 L706 1474 L707 1470.5L708 1467L708.5 1466.5 L709 1466 L709 1465.5C709 1465.2 709 1464.7 709 1464.5 L709 1464L709.5 1463.5 L710 1463 L713.5 1452.5L717 1442L717 1441 717.5 1440.5 L717.7 1439.7 718.2 1439.2 L718.5 1438.5 L719 1438 L762 1318L805 1198L805 1198 L803.2 1198C802.2 1198 782.4 1200.4 759 1203.5 C735.7 1206.5 716.4 1208.7 716.2 1208.5 C715.9 1208.3 716.1 1206.3 716.4 1204 C716.8 1201.8 717.3 1200 717.5 1200 L718 1200L718 1199 L718 1198 L718 1197.5C718 1197.2 718.2 1197 718.5 1197 L719 1197L719 1197 L719 1195.5L719 1194L719 1194 L719 1193.5C719 1193.2 719.2 1193 719.5 1193 L720 1193L720 1193 L719.9 1192.2C719.9 1191.8 720.2 1190.2 720.4 1188.7 L721 1186L721.5 1185.5 L722 1185 L722 1183.9C722 1183.4 738.3 1119.1 758.3 1041.2 L794.6 899.5 806.3 899.2 L818 899L818 899 L870.5 899C899.3 899 923 899.1 923 899.3 C923 899.5 909.2 936.2 892.4 981 C875.7 1025.7 862 1062.3 862.2 1062.5 C862.3 1062.6 889.7 1058.4 923 1053.3 C956.2 1048.2 984.2 1044.1 985.1 1044.2 C986.4 1044.4 950.2 1101.7 842.7 1269.6 C763.4 1393.5 698.4 1494.7 698.2 1494.5 C698 1494.3 698.6 1492.2 699.6 1489.8 C700.5 1487.4 701.4 1485.3 701.6 1485.2 L702 1485M1119.2 1442 C1077.5 1437.7 1041.2 1428.1 1001.6 1410.8 C997.8 1409.1 994.6 1408 994.4 1408.1 C994.2 1408.3 993.6 1413.4 992.9 1419.5 C992.3 1425.5 991.6 1430.6 991.4 1430.8 C991.2 1431 943.7 1376.1 922.2 1350.8 C921 1349.3 925 1345.5 962.1 1313.4 C984.9 1293.7 1004.5 1276.7 1005.8 1275.5 L1008.2 1273.5 1007.5 1280 C1007.1 1283.5 1006.6 1287.7 1006.3 1289.2 C1005.9 1291.5 1006.4 1292.2 1010.6 1294.9 C1018.6 1300 1042.8 1311.6 1053.5 1315.5 C1066.1 1320.1 1085.7 1325.2 1102.5 1328.1 C1113.2 1330 1119.2 1330.4 1137 1330.4 C1155.9 1330.4 1159.5 1330.1 1167.3 1328.2 C1189.3 1322.6 1205.5 1308.9 1211 1291.1 C1213.3 1283.6 1213.5 1276 1211.5 1266.8 C1206.7 1244.1 1189.8 1229.8 1152.9 1217.1 C1135 1211 1122.2 1205.6 1100.5 1194.9 C1044 1167.2 1011.8 1135.3 998 1093.2 C986.1 1056.7 990.4 1008.4 1008.9 970.5 C1031 925.1 1071.2 894.3 1121.7 884 C1151.1 878 1187.1 878.9 1224.2 886.4 C1238 889.2 1268 897.5 1278.3 901.4 C1282.1 902.9 1285.4 903.8 1285.7 903.5 C1286 903.2 1287 898.1 1287.9 892.2 L1289.5 881.5 1318.4 918.5 C1334.3 938.8 1349.3 958.1 1351.8 961.2 C1354.5 964.7 1355.9 967.4 1355.4 967.9 C1352.4 970.8 1266.5 1037.8 1266.2 1037.5 C1265.8 1037.1 1268.2 1019.8 1269.5 1012.8 C1270 1010.2 1269.7 1010 1259.8 1006.2 C1239.8 998.5 1217.9 992.6 1197.5 989.4 C1182.4 987 1155 986.9 1146 989.3 C1119 996.3 1103.7 1016.1 1103.7 1044 C1103.7 1059.1 1108.8 1071 1119.6 1081 C1129.3 1090.1 1140.7 1096.1 1165 1105.2 C1240.8 1133.4 1285.1 1165.4 1309.6 1209.7 C1334.5 1254.8 1329.8 1322.2 1298.5 1368.9 C1270.6 1410.5 1226.6 1435.3 1169.4 1441.5 C1153.8 1443.2 1133.2 1443.4 1119.2 1442 M315.2 1161.2 L315.5 884.5 419 884.2 C527.6 883.9 551.9 884.5 569.5 888 C633.5 900.6 679.3 948.3 693 1016.5 C695.8 1030.3 696.8 1061.1 695 1075.6 C687.1 1138.5 648.7 1188.8 594.7 1207 C591 1208.2 588 1209.5 588 1209.9 C588 1210.5 697.2 1405.4 712 1431.2 L715.8 1438 653.1 1437.9 L590.5 1437.9 535 1332.7 L479.5 1227.5 452.7 1227.2 L426 1226.9 426 1332.4 L426 1438 370.5 1438 L315 1438 315.2 1161.2 M426 1057 L426 995 477 995 C533.1 995 536.2 995.2 548.7 1001.1 C557 1005 566.4 1014.4 571.2 1023.6 C581.7 1043.6 581.7 1070.1 571.3 1090.3 C564.1 1104.2 549.6 1115.1 534.7 1117.9 C531.1 1118.6 510 1119 477.5 1119 L426 1119 426 1057 M1419 1160.9 L1419 883.9 1557.2 884.2 L1695.5 884.5 1695.7 939.7 L1696 995 1612.5 995 L1529 995 1529 1050.5 L1529 1106 1602 1106 L1675 1106 1674.7 1161.2 L1674.5 1216.5 1601.7 1216.7 L1529 1217 1529 1272 L1529 1327 1617 1327 L1705 1327 1705 1382.5 L1705 1438 1562 1438 L1419 1438 1419 1160.9 M207.7 866.4 C174.4 861.1 152.9 853.2 129.5 837.5 C118.3 830.1 100.2 812.6 90.9 800.5 C87.1 795.4 84 790.9 84 790.4 C84 789.9 87.2 787.4 91.2 784.8 C95.2 782.2 114 770.1 133 757.9 C151.9 745.6 174.9 730.8 184 725 C193 719.1 226.6 697.4 258.5 676.8 C290.4 656.2 333.8 628.1 355 614.4 C376.1 600.8 416.2 574.9 444 556.9 C471.7 539 519.2 508.3 549.5 488.8 C579.7 469.2 618.3 444.3 635.2 433.3 C652.1 422.4 677.7 405.8 692.2 396.5 C706.6 387.2 731.3 371.3 747 361.1 C762.6 351 791.7 332.2 811.5 319.5 C831.3 306.7 868.2 282.8 893.5 266.5 C980.4 210.1 978.4 211.3 993.8 207.9 C1009.9 204.3 1026.8 205.6 1042.8 211.5 C1050.2 214.3 1058.7 219.6 1135 268.9 C1153.9 281.2 1187.7 303.1 1210 317.5 C1232.2 331.9 1262.6 351.5 1277.5 361.1 C1292.3 370.7 1317 386.6 1332.2 396.5 C1347.5 406.4 1374.5 423.9 1392.2 435.3 C1410 446.8 1437.5 464.7 1453.5 474.9 C1469.4 485.2 1494.6 501.5 1509.5 511.1 C1524.3 520.7 1551.3 538.2 1569.5 549.9 C1600.3 569.9 1625.8 586.4 1671.5 616 C1681.9 622.7 1703.5 636.7 1719.5 646.9 C1735.4 657.2 1765.3 676.6 1786 689.9 C1806.6 703.3 1830.9 719.1 1840 724.9 C1849 730.8 1871.8 745.5 1890.5 757.6 C1909.2 769.7 1928.2 782 1932.7 784.9 L1940.9 790.1 1939.2 793.1 C1935.6 799.2 1924 812.7 1914.7 821.6 C1903.6 832.2 1888 842.9 1873.6 850 C1822.9 874.7 1761.5 871.9 1713.2 842.8 C1704.8 837.8 1657.1 807.1 1599.5 769.8 C1584.6 760.1 1550.1 737.8 1522.7 720.1 C1474.8 689.2 1433.5 662.4 1405 643.9 C1381.2 628.5 1334.3 598.2 1306 579.9 C1279.5 562.9 1253 545.7 1210.5 518.1 C1199.5 511 1170.4 492.2 1146 476.4 C1121.5 460.6 1094.7 443.3 1086.5 437.9 C1039.5 407.4 1013.3 390.6 1012.4 390.6 C1011.4 390.6 987.4 405.9 930 443.1 C919.8 449.7 894.4 466.2 873.5 479.6 C852.6 493.1 825.6 510.6 813.5 518.4 C801.4 526.3 784.3 537.3 775.5 543 C766.7 548.6 752 558.1 743 563.9 C733.9 569.8 708.7 586.1 687 600.1 C665.2 614.2 628.8 637.7 606 652.5 C583.1 667.2 553.9 686.1 541 694.5 C528 702.8 502.6 719.2 484.5 731 C442.8 757.9 414.9 775.9 379.5 798.7 C364.1 808.7 342 823 330.5 830.5 C306.1 846.5 299 850.4 285.6 855.4 C271.8 860.5 259.4 863.6 245.7 865.4 C234.2 866.9 214.1 867.5 207.7 866.4 "/>
 </g>
 <g fill="#0a4510" fill-rule="evenodd">
  <path d="M1119.2 1442 C1077.5 1437.7 1041.2 1428.1 1001.6 1410.8 C997.8 1409.1 994.6 1408 994.4 1408.1 C994.2 1408.3 993.6 1413.4 992.9 1419.5 C992.3 1425.5 991.6 1430.6 991.4 1430.8 C991.2 1431 943.7 1376.1 922.2 1350.8 C921 1349.3 925 1345.5 962.1 1313.4 C984.9 1293.7 1004.5 1276.7 1005.8 1275.5 L1008.2 1273.5 1007.5 1280 C1007.1 1283.5 1006.6 1287.7 1006.3 1289.2 C1005.9 1291.5 1006.4 1292.2 1010.6 1294.9 C1018.6 1300 1042.8 1311.6 1053.5 1315.5 C1066.1 1320.1 1085.7 1325.2 1102.5 1328.1 C1113.2 1330 1119.2 1330.4 1137 1330.4 C1155.9 1330.4 1159.5 1330.1 1167.3 1328.2 C1189.3 1322.6 1205.5 1308.9 1211 1291.1 C1213.3 1283.6 1213.5 1276 1211.5 1266.8 C1206.7 1244.1 1189.8 1229.8 1152.9 1217.1 C1135 1211 1122.2 1205.6 1100.5 1194.9 C1044 1167.2 1011.8 1135.3 998 1093.2 C986.1 1056.7 990.4 1008.4 1008.9 970.5 C1031 925.1 1071.2 894.3 1121.7 884 C1151.1 878 1187.1 878.9 1224.2 886.4 C1238 889.2 1268 897.5 1278.3 901.4 C1282.1 902.9 1285.4 903.8 1285.7 903.5 C1286 903.2 1287 898.1 1287.9 892.2 L1289.5 881.5 1318.4 918.5 C1334.3 938.8 1349.3 958.1 1351.8 961.2 C1354.5 964.7 1355.9 967.4 1355.4 967.9 C1352.4 970.8 1266.5 1037.8 1266.2 1037.5 C1265.8 1037.1 1268.2 1019.8 1269.5 1012.8 C1270 1010.2 1269.7 1010 1259.8 1006.2 C1239.8 998.5 1217.9 992.6 1197.5 989.4 C1182.4 987 1155 986.9 1146 989.3 C1119 996.3 1103.7 1016.1 1103.7 1044 C1103.7 1059.1 1108.8 1071 1119.6 1081 C1129.3 1090.1 1140.7 1096.1 1165 1105.2 C1240.8 1133.4 1285.1 1165.4 1309.6 1209.7 C1334.5 1254.8 1329.8 1322.2 1298.5 1368.9 C1270.6 1410.5 1226.6 1435.3 1169.4 1441.5 C1153.8 1443.2 1133.2 1443.4 1119.2 1442 "/>
  <path d="M315.2 1161.2 L315.5 884.5 419 884.2 C527.6 883.9 551.9 884.5 569.5 888 C633.5 900.6 679.3 948.3 693 1016.5 C695.8 1030.3 696.8 1061.1 695 1075.6 C687.1 1138.5 648.7 1188.8 594.7 1207 C591 1208.2 588 1209.5 588 1209.9 C588 1210.5 697.2 1405.4 712 1431.2 L715.8 1438 653.1 1437.9 L590.5 1437.9 535 1332.7 L479.5 1227.5 452.7 1227.2 L426 1226.9 426 1332.4 L426 1438 370.5 1438 L315 1438 315.2 1161.2 M426 1057 L426 995 477 995 C533.1 995 536.2 995.2 548.7 1001.1 C557 1005 566.4 1014.4 571.2 1023.6 C581.7 1043.6 581.7 1070.1 571.3 1090.3 C564.1 1104.2 549.6 1115.1 534.7 1117.9 C531.1 1118.6 510 1119 477.5 1119 L426 1119 426 1057 "/>
  <path d="M1419 1160.9 L1419 883.9 1557.2 884.2 L1695.5 884.5 1695.7 939.7 L1696 995 1612.5 995 L1529 995 1529 1050.5 L1529 1106 1602 1106 L1675 1106 1674.7 1161.2 L1674.5 1216.5 1601.7 1216.7 L1529 1217 1529 1272 L1529 1327 1617 1327 L1705 1327 1705 1382.5 L1705 1438 1562 1438 L1419 1438 1419 1160.9 "/>
  <path d="M207.7 866.4 C174.4 861.1 152.9 853.2 129.5 837.5 C118.3 830.1 100.2 812.6 90.9 800.5 C87.1 795.4 84 790.9 84 790.4 C84 789.9 87.2 787.4 91.2 784.8 C95.2 782.2 114 770.1 133 757.9 C151.9 745.6 174.9 730.8 184 725 C193 719.1 226.6 697.4 258.5 676.8 C290.4 656.2 333.8 628.1 355 614.4 C376.1 600.8 416.2 574.9 444 556.9 C471.7 539 519.2 508.3 549.5 488.8 C579.7 469.2 618.3 444.3 635.2 433.3 C652.1 422.4 677.7 405.8 692.2 396.5 C706.6 387.2 731.3 371.3 747 361.1 C762.6 351 791.7 332.2 811.5 319.5 C831.3 306.7 868.2 282.8 893.5 266.5 C980.4 210.1 978.4 211.3 993.8 207.9 C1009.9 204.3 1026.8 205.6 1042.8 211.5 C1050.2 214.3 1058.7 219.6 1135 268.9 C1153.9 281.2 1187.7 303.1 1210 317.5 C1232.2 331.9 1262.6 351.5 1277.5 361.1 C1292.3 370.7 1317 386.6 1332.2 396.5 C1347.5 406.4 1374.5 423.9 1392.2 435.3 C1410 446.8 1437.5 464.7 1453.5 474.9 C1469.4 485.2 1494.6 501.5 1509.5 511.1 C1524.3 520.7 1551.3 538.2 1569.5 549.9 C1600.3 569.9 1625.8 586.4 1671.5 616 C1681.9 622.7 1703.5 636.7 1719.5 646.9 C1735.4 657.2 1765.3 676.6 1786 689.9 C1806.6 703.3 1830.9 719.1 1840 724.9 C1849 730.8 1871.8 745.5 1890.5 757.6 C1909.2 769.7 1928.2 782 1932.7 784.9 L1940.9 790.1 1939.2 793.1 C1935.6 799.2 1924 812.7 1914.7 821.6 C1903.6 832.2 1888 842.9 1873.6 850 C1822.9 874.7 1761.5 871.9 1713.2 842.8 C1704.8 837.8 1657.1 807.1 1599.5 769.8 C1584.6 760.1 1550.1 737.8 1522.7 720.1 C1474.8 689.2 1433.5 662.4 1405 643.9 C1381.2 628.5 1334.3 598.2 1306 579.9 C1279.5 562.9 1253 545.7 1210.5 518.1 C1199.5 511 1170.4 492.2 1146 476.4 C1121.5 460.6 1094.7 443.3 1086.5 437.9 C1039.5 407.4 1013.3 390.6 1012.4 390.6 C1011.4 390.6 987.4 405.9 930 443.1 C919.8 449.7 894.4 466.2 873.5 479.6 C852.6 493.1 825.6 510.6 813.5 518.4 C801.4 526.3 784.3 537.3 775.5 543 C766.7 548.6 752 558.1 743 563.9 C733.9 569.8 708.7 586.1 687 600.1 C665.2 614.2 628.8 637.7 606 652.5 C583.1 667.2 553.9 686.1 541 694.5 C528 702.8 502.6 719.2 484.5 731 C442.8 757.9 414.9 775.9 379.5 798.7 C364.1 808.7 342 823 330.5 830.5 C306.1 846.5 299 850.4 285.6 855.4 C271.8 860.5 259.4 863.6 245.7 865.4 C234.2 866.9 214.1 867.5 207.7 866.4 "/>
 </g>
 <g fill="#ebca13" fill-rule="evenodd">
  <path d="M701.5 1486.5 L701.5 1486.5 L701 1486 L701 1485.5C701 1485.2 701.2 1485 701.5 1485 L702 1485L702 1485 L702.5 1485C702.7 1485 703 1484.5 703 1484 C703 1483.4 702.7 1483 702.5 1483 L702 1483L702 1483 L702 1482.5C702 1482.2 702.2 1482 702.5 1482 L703 1482L703 1482 L703.5 1482.6C703.7 1483 704 1482.5 704 1481.6 C704 1480.7 703.7 1480 703.5 1480 L703 1480L703 1480 L703 1479.5C703 1479.2 703.2 1479 703.5 1479 L704 1479L704 1479 L704.6 1478.7C705 1478.6 707 1474.6 709 1470 C711.1 1465.3 738.4 1402.8 769.8 1331.2 C801.2 1259.5 827.1 1200 827.5 1198.9 C828.1 1197 827.6 1197 817.2 1197 C811.2 1197 806 1197.2 805.6 1197.5 L805 1198L805 1198 L803.2 1198C802.2 1198 782.4 1200.4 759 1203.5 C735.7 1206.5 716.4 1208.7 716.2 1208.5 C715.9 1208.3 716.1 1206.3 716.4 1204 C716.8 1201.8 717.3 1200 717.5 1200 L718 1200L719 1200 L719 1199.5C719 1199.2 719 1198.7 719 1198.5 L719 1198L718 1198 L718 1197.5C718 1197.2 718.2 1197 718.5 1197 L719 1197L719 1197 L719.5 1197C719.7 1197 720 1196.3 720 1195.5 C720 1194.6 719.7 1194 719.5 1194 L719 1194L719 1194 L719 1193.5C719 1193.2 719.2 1193 719.5 1193 L720 1193L720 1193 L720 1193.7C720 1194.1 725.6 1177.8 732.4 1157.5 C739.2 1137.1 758.9 1077.5 776.3 1025 C793.7 972.4 810.1 922.6 812.9 914.2 L818 899L818 899 L870.5 899C899.3 899 923 899.1 923 899.3 C923 899.5 909.2 936.2 892.4 981 C875.7 1025.7 862 1062.3 862.2 1062.5 C862.3 1062.6 889.7 1058.4 923 1053.3 C956.2 1048.2 984.2 1044.1 985.1 1044.2 C986.4 1044.4 950.2 1101.7 842.7 1269.6 C763.4 1393.5 698.4 1494.7 698.2 1494.5 C698 1494.4 698.4 1493 699 1491.4 C699.5 1489.9 700.2 1488.3 700.5 1487.8 L701 1487"/>
 </g>
 <g fill="#7a6807" fill-rule="evenodd">
  <path d="M702 1484 L702 1483.5C702 1483.2 702.2 1483 702.5 1483 L703 1483L703 1483 L703 1482.5C703 1482.2 703 1481.7 703 1481.5 L703 1481L703 1481 L703 1480.5C703 1480.2 703.2 1480 703.5 1480 L704 1480L704 1480 703.6 1479 L704 1478 L704.5 1477C704.7 1476.5 705 1475.9 705 1475.5 L705 1475L705.5 1474.5 L706 1474 L707 1470.5L708 1467L708.5 1466.5 L709 1466 L709 1465.5C709 1465.2 709 1464.7 709 1464.5 L709 1464L709.5 1463.5 L710 1463 L713.5 1452.5L717 1442L717.5 1441.5 718 1441 L717.7 1439.7 718.2 1439.2 L718.5 1438.5 L719 1438 L762 1318L805 1198L805 1198 L805.6 1197.5C806 1197.2 811.2 1197 817.2 1197 C827.8 1197 828.1 1197 827.4 1199 C827.1 1200.2 816.3 1225 803.5 1254.3 C790.7 1283.5 762.8 1347.1 741.6 1395.7 C720.3 1444.2 703 1484.1 703 1484.4 L703 1485L702 1484.6 702.2 1484 "/>
  <path d="M719 1197 L719 1195.5L719 1194L719 1194 L719.5 1194C719.7 1194 720 1193.7 720 1193.5 L720 1193L720 1193 L719.9 1192.2C719.9 1191.8 720.2 1190.2 720.4 1188.7 L721 1186L721.5 1185.5 L722 1185 L722 1183.9C722 1183.4 738.3 1119.1 758.3 1041.2 L794.6 899.5 806.3 899.2 L818 899L818 899 L803.8 941.7C796.1 965.2 779.9 1014.2 767.9 1050.5 C755.9 1086.8 740 1134.6 732.7 1156.7 C725.4 1178.8 719.3 1196.9 719.2 1196.9 L719 1197"/>
 </g>
</svg>