<svg xmlns="http://www.w3.org/2000/svg" width="2000" height="2000" viewBox="0 0 2000 2000">
<rect width="100%" height="100%" fill="#FFFFFF"/>
<path d="M 1419 885 L 1419 1437 L 1704 1437 L 1704 1328 L 1528 1326 L 1529 1215 L 1674 1215 L 1674 1106 L 1528 1105 L 1528 995 L 1695 994 L 1695 885 Z" fill="#0A4510" fill-rule="evenodd"/>
<path d="M 315 885 L 315 1437 L 424 1437 L 426 1225 L 480 1227 L 591 1437 L 714 1437 L 586 1209 L 621 1194 L 649 1172 L 672 1142 L 688 1105 L 695 1067 L 693 1020 L 683 984 L 665 950 L 639 921 L 618 906 L 595 895 L 550 885 Z M 424 995 L 531 994 L 553 1002 L 569 1018 L 579 1044 L 578 1074 L 567 1098 L 550 1113 L 532 1119 L 425 1119 Z" fill="#0A4510" fill-rule="evenodd"/>
<path d="M 1290 883 L 1285 910 L 1284 904 L 1265 897 L 1199 882 L 1157 880 L 1108 887 L 1088 894 L 1054 914 L 1030 937 L 1014 960 L 998 998 L 992 1030 L 994 1078 L 1000 1099 L 1012 1123 L 1036 1152 L 1072 1179 L 1112 1200 L 1172 1223 L 1191 1234 L 1204 1247 L 1210 1258 L 1213 1286 L 1203 1307 L 1179 1325 L 1155 1331 L 1119 1331 L 1067 1321 L 1025 1304 L 1005 1291 L 1007 1274 L 921 1349 L 991 1430 L 994 1406 L 1043 1426 L 1088 1437 L 1133 1442 L 1193 1437 L 1230 1425 L 1257 1410 L 1286 1384 L 1303 1360 L 1319 1321 L 1325 1273 L 1319 1234 L 1301 1196 L 1271 1163 L 1241 1141 L 1210 1124 L 1149 1100 L 1124 1086 L 1109 1070 L 1102 1049 L 1104 1027 L 1114 1007 L 1126 996 L 1144 988 L 1199 988 L 1266 1007 L 1270 1010 L 1266 1037 L 1354 968 L 1352 962 Z" fill="#0A4510" fill-rule="evenodd"/>
<path d="M 84 789 L 97 808 L 121 831 L 154 851 L 182 861 L 216 866 L 243 865 L 292 852 L 316 839 L 1013 389 L 1653 804 L 1732 852 L 1763 862 L 1795 866 L 1821 865 L 1865 853 L 1900 833 L 1924 811 L 1940 790 L 1059 220 L 1036 209 L 1020 206 L 992 208 L 968 218 Z" fill="#0A4510" fill-rule="evenodd"/>
<path d="M 827 1197 L 806 1197 L 702 1484 Z" fill="#7A6807" fill-rule="evenodd"/>
<path d="M 817 899 L 795 899 L 719 1196 Z" fill="#7A6807" fill-rule="evenodd"/>
<path d="M 922 899 L 818 899 L 721 1193 L 719 1192 L 720 1196 L 718 1196 L 716 1208 L 806 1196 L 827 1196 L 828 1199 L 698 1494 L 986 1044 L 861 1062 Z" fill="#EBCA13" fill-rule="evenodd"/>
</svg>